<svg width="16" height="17" viewBox="0 0 16 17" fill="none" xmlns="http://www.w3.org/2000/svg">
<path d="M15.8991 5.11879C15.8902 4.45059 15.7651 3.78902 15.5294 3.1637C15.325 2.63624 15.0129 2.15721 14.6129 1.75722C14.2129 1.35724 13.7339 1.04508 13.2064 0.840705C12.5891 0.608985 11.937 0.48369 11.2778 0.470155C10.4291 0.432218 10.16 0.421631 8.0055 0.421631C5.85102 0.421631 5.57487 0.421631 4.73231 0.470155C4.0734 0.48379 3.42158 0.609083 2.80457 0.840705C2.27703 1.04494 1.79793 1.35704 1.39792 1.75705C0.997913 2.15706 0.685808 2.63616 0.481574 3.1637C0.24939 3.78052 0.124367 4.43249 0.111907 5.09144C0.0739694 5.94106 0.0625 6.21015 0.0625 8.36463C0.0625 10.5191 0.0625 10.7944 0.111907 11.6378C0.125141 12.2977 0.249539 12.9489 0.481574 13.5673C0.686151 14.0947 0.998487 14.5736 1.39863 14.9734C1.79877 15.3733 2.27791 15.6853 2.80545 15.8894C3.42077 16.1305 4.07271 16.2647 4.73319 16.2864C5.58281 16.3244 5.8519 16.3359 8.00638 16.3359C10.1609 16.3359 10.437 16.3359 11.2796 16.2864C11.9388 16.2735 12.5909 16.1485 13.2082 15.9168C13.7355 15.7122 14.2144 15.3999 14.6144 15C15.0143 14.6 15.3266 14.1211 15.5312 13.5938C15.7632 12.9762 15.8876 12.3251 15.9009 11.6643C15.9388 10.8155 15.9503 10.5465 15.9503 8.3911C15.9485 6.23661 15.9485 5.96311 15.8991 5.11879ZM8.0002 12.4389C5.74691 12.4389 3.92151 10.6135 3.92151 8.36022C3.92151 6.10692 5.74691 4.28152 8.0002 4.28152C9.08194 4.28152 10.1194 4.71124 10.8843 5.47615C11.6492 6.24105 12.0789 7.27848 12.0789 8.36022C12.0789 9.44195 11.6492 10.4794 10.8843 11.2443C10.1194 12.0092 9.08194 12.4389 8.0002 12.4389ZM12.2412 5.08173C12.1163 5.08185 11.9926 5.05733 11.8771 5.00957C11.7617 4.96182 11.6568 4.89177 11.5685 4.80343C11.4801 4.71509 11.4101 4.6102 11.3623 4.49476C11.3146 4.37931 11.29 4.25559 11.2902 4.13066C11.2902 4.00582 11.3147 3.8822 11.3625 3.76686C11.4103 3.65153 11.4803 3.54673 11.5686 3.45846C11.6569 3.37018 11.7617 3.30016 11.877 3.25238C11.9923 3.20461 12.116 3.18002 12.2408 3.18002C12.3656 3.18002 12.4892 3.20461 12.6046 3.25238C12.7199 3.30016 12.8247 3.37018 12.913 3.45846C13.0013 3.54673 13.0713 3.65153 13.1191 3.76686C13.1668 3.8822 13.1914 4.00582 13.1914 4.13066C13.1914 4.65648 12.7662 5.08173 12.2412 5.08173Z" fill="#626F8A"/>
<path d="M15.8991 5.11879C15.8902 4.45059 15.7651 3.78902 15.5294 3.1637C15.325 2.63624 15.0129 2.15721 14.6129 1.75722C14.2129 1.35724 13.7339 1.04508 13.2064 0.840705C12.5891 0.608985 11.937 0.48369 11.2778 0.470155C10.4291 0.432218 10.16 0.421631 8.0055 0.421631C5.85102 0.421631 5.57487 0.421631 4.73231 0.470155C4.0734 0.48379 3.42158 0.609083 2.80457 0.840705C2.27703 1.04494 1.79793 1.35704 1.39792 1.75705C0.997913 2.15706 0.685808 2.63616 0.481574 3.1637C0.24939 3.78052 0.124367 4.43249 0.111907 5.09144C0.0739694 5.94106 0.0625 6.21015 0.0625 8.36463C0.0625 10.5191 0.0625 10.7944 0.111907 11.6378C0.125141 12.2977 0.249539 12.9489 0.481574 13.5673C0.686151 14.0947 0.998487 14.5736 1.39863 14.9734C1.79877 15.3733 2.27791 15.6853 2.80545 15.8894C3.42077 16.1305 4.07271 16.2647 4.73319 16.2864C5.58281 16.3244 5.8519 16.3359 8.00638 16.3359C10.1609 16.3359 10.437 16.3359 11.2796 16.2864C11.9388 16.2735 12.5909 16.1485 13.2082 15.9168C13.7355 15.7122 14.2144 15.3999 14.6144 15C15.0143 14.6 15.3266 14.1211 15.5312 13.5938C15.7632 12.9762 15.8876 12.3251 15.9009 11.6643C15.9388 10.8155 15.9503 10.5465 15.9503 8.3911C15.9485 6.23661 15.9485 5.96311 15.8991 5.11879ZM8.0002 12.4389C5.74691 12.4389 3.92151 10.6135 3.92151 8.36022C3.92151 6.10692 5.74691 4.28152 8.0002 4.28152C9.08194 4.28152 10.1194 4.71124 10.8843 5.47615C11.6492 6.24105 12.0789 7.27848 12.0789 8.36022C12.0789 9.44195 11.6492 10.4794 10.8843 11.2443C10.1194 12.0092 9.08194 12.4389 8.0002 12.4389ZM12.2412 5.08173C12.1163 5.08185 11.9926 5.05733 11.8771 5.00957C11.7617 4.96182 11.6568 4.89177 11.5685 4.80343C11.4801 4.71509 11.4101 4.6102 11.3623 4.49476C11.3146 4.37931 11.29 4.25559 11.2902 4.13066C11.2902 4.00582 11.3147 3.8822 11.3625 3.76686C11.4103 3.65153 11.4803 3.54673 11.5686 3.45846C11.6569 3.37018 11.7617 3.30016 11.877 3.25238C11.9923 3.20461 12.116 3.18002 12.2408 3.18002C12.3656 3.18002 12.4892 3.20461 12.6046 3.25238C12.7199 3.30016 12.8247 3.37018 12.913 3.45846C13.0013 3.54673 13.0713 3.65153 13.1191 3.76686C13.1668 3.8822 13.1914 4.00582 13.1914 4.13066C13.1914 4.65648 12.7662 5.08173 12.2412 5.08173Z" fill="black" fill-opacity="0.2"/>
<path d="M8.00099 11.0098C9.46423 11.0098 10.6504 9.82361 10.6504 8.36037C10.6504 6.89713 9.46423 5.71094 8.00099 5.71094C6.53775 5.71094 5.35156 6.89713 5.35156 8.36037C5.35156 9.82361 6.53775 11.0098 8.00099 11.0098Z" fill="#626F8A"/>
<path d="M8.00099 11.0098C9.46423 11.0098 10.6504 9.82361 10.6504 8.36037C10.6504 6.89713 9.46423 5.71094 8.00099 5.71094C6.53775 5.71094 5.35156 6.89713 5.35156 8.36037C5.35156 9.82361 6.53775 11.0098 8.00099 11.0098Z" fill="black" fill-opacity="0.2"/>
</svg>
