<svg width="10" height="17" viewBox="0 0 10 17" fill="none" xmlns="http://www.w3.org/2000/svg">
<path d="M9.56698 1.42474C9.56698 1.31059 9.52163 1.20112 9.44092 1.12041C9.3602 1.03969 9.25073 0.994347 9.13659 0.994347H6.98463C5.90102 0.940369 4.84008 1.31748 4.03364 2.04328C3.22719 2.76908 2.7408 3.78456 2.68073 4.86786V7.19197H0.528779C0.414632 7.19197 0.305161 7.23731 0.224447 7.31803C0.143733 7.39874 0.0983887 7.50821 0.0983887 7.62236V9.86039C0.0983887 9.97454 0.143733 10.084 0.224447 10.1647C0.305161 10.2454 0.414632 10.2908 0.528779 10.2908H2.68073V16.058C2.68073 16.1722 2.72608 16.2816 2.80679 16.3623C2.8875 16.4431 2.99697 16.4884 3.11112 16.4884H5.69346C5.80761 16.4884 5.91708 16.4431 5.9978 16.3623C6.07851 16.2816 6.12385 16.1722 6.12385 16.058V10.2908H8.3791C8.47481 10.2922 8.56825 10.2616 8.64464 10.2039C8.72102 10.1462 8.776 10.0647 8.80088 9.97229L9.42064 7.73426C9.43777 7.67067 9.44007 7.60399 9.42737 7.53937C9.41467 7.47475 9.38732 7.4139 9.3474 7.36152C9.30749 7.30913 9.25609 7.2666 9.19715 7.23721C9.13822 7.20782 9.07333 7.19234 9.00747 7.19197H6.12385V4.86786C6.14526 4.6548 6.24532 4.45736 6.40449 4.31411C6.56366 4.17086 6.7705 4.09208 6.98463 4.09316H9.13659C9.25073 4.09316 9.3602 4.04781 9.44092 3.9671C9.52163 3.88639 9.56698 3.77691 9.56698 3.66277V1.42474Z" fill="#626F8A"/>
<path d="M9.56698 1.42474C9.56698 1.31059 9.52163 1.20112 9.44092 1.12041C9.3602 1.03969 9.25073 0.994347 9.13659 0.994347H6.98463C5.90102 0.940369 4.84008 1.31748 4.03364 2.04328C3.22719 2.76908 2.7408 3.78456 2.68073 4.86786V7.19197H0.528779C0.414632 7.19197 0.305161 7.23731 0.224447 7.31803C0.143733 7.39874 0.0983887 7.50821 0.0983887 7.62236V9.86039C0.0983887 9.97454 0.143733 10.084 0.224447 10.1647C0.305161 10.2454 0.414632 10.2908 0.528779 10.2908H2.68073V16.058C2.68073 16.1722 2.72608 16.2816 2.80679 16.3623C2.8875 16.4431 2.99697 16.4884 3.11112 16.4884H5.69346C5.80761 16.4884 5.91708 16.4431 5.9978 16.3623C6.07851 16.2816 6.12385 16.1722 6.12385 16.058V10.2908H8.3791C8.47481 10.2922 8.56825 10.2616 8.64464 10.2039C8.72102 10.1462 8.776 10.0647 8.80088 9.97229L9.42064 7.73426C9.43777 7.67067 9.44007 7.60399 9.42737 7.53937C9.41467 7.47475 9.38732 7.4139 9.3474 7.36152C9.30749 7.30913 9.25609 7.2666 9.19715 7.23721C9.13822 7.20782 9.07333 7.19234 9.00747 7.19197H6.12385V4.86786C6.14526 4.6548 6.24532 4.45736 6.40449 4.31411C6.56366 4.17086 6.7705 4.09208 6.98463 4.09316H9.13659C9.25073 4.09316 9.3602 4.04781 9.44092 3.9671C9.52163 3.88639 9.56698 3.77691 9.56698 3.66277V1.42474Z" fill="black" fill-opacity="0.2"/>
</svg>
