<svg width="18" height="14" viewBox="0 0 18 14" fill="none" xmlns="http://www.w3.org/2000/svg">
<path d="M17.433 1.72011C16.8127 1.99494 16.1464 2.18064 15.446 2.26457C16.1687 1.83211 16.7094 1.15147 16.9672 0.349655C16.2882 0.752983 15.545 1.03688 14.7701 1.18901C14.2489 0.632559 13.5586 0.263734 12.8064 0.139797C12.0541 0.0158611 11.282 0.143747 10.6099 0.503601C9.93773 0.863455 9.40322 1.43514 9.0893 2.12991C8.77538 2.82467 8.69962 3.60364 8.87377 4.34587C7.49789 4.27679 6.15191 3.91918 4.92318 3.29624C3.69445 2.6733 2.61044 1.79896 1.74149 0.729965C1.44438 1.24249 1.27353 1.83672 1.27353 2.46958C1.2732 3.0393 1.4135 3.60029 1.68198 4.10278C1.95046 4.60527 2.33882 5.03373 2.8126 5.35013C2.26314 5.33264 1.7258 5.18418 1.24531 4.91708V4.96165C1.24525 5.7607 1.52165 6.53516 2.0276 7.15362C2.53355 7.77208 3.2379 8.19645 4.02112 8.35472C3.5114 8.49267 2.977 8.51299 2.45829 8.41414C2.67926 9.10168 3.10971 9.7029 3.68936 10.1336C4.26902 10.5644 4.96886 10.8031 5.69091 10.8163C4.46518 11.7785 2.95142 12.3005 1.39312 12.2982C1.11709 12.2983 0.841285 12.2822 0.567139 12.2499C2.14889 13.2669 3.99017 13.8067 5.87067 13.8046C12.2364 13.8046 15.7164 8.53224 15.7164 3.95962C15.7164 3.81106 15.7127 3.66102 15.706 3.51246C16.3829 3.02294 16.9672 2.41677 17.4315 1.72233L17.433 1.72011Z" fill="#626F8A"/>
<path d="M17.433 1.72011C16.8127 1.99494 16.1464 2.18064 15.446 2.26457C16.1687 1.83211 16.7094 1.15147 16.9672 0.349655C16.2882 0.752983 15.545 1.03688 14.7701 1.18901C14.2489 0.632559 13.5586 0.263734 12.8064 0.139797C12.0541 0.0158611 11.282 0.143747 10.6099 0.503601C9.93773 0.863455 9.40322 1.43514 9.0893 2.12991C8.77538 2.82467 8.69962 3.60364 8.87377 4.34587C7.49789 4.27679 6.15191 3.91918 4.92318 3.29624C3.69445 2.6733 2.61044 1.79896 1.74149 0.729965C1.44438 1.24249 1.27353 1.83672 1.27353 2.46958C1.2732 3.0393 1.4135 3.60029 1.68198 4.10278C1.95046 4.60527 2.33882 5.03373 2.8126 5.35013C2.26314 5.33264 1.7258 5.18418 1.24531 4.91708V4.96165C1.24525 5.7607 1.52165 6.53516 2.0276 7.15362C2.53355 7.77208 3.2379 8.19645 4.02112 8.35472C3.5114 8.49267 2.977 8.51299 2.45829 8.41414C2.67926 9.10168 3.10971 9.7029 3.68936 10.1336C4.26902 10.5644 4.96886 10.8031 5.69091 10.8163C4.46518 11.7785 2.95142 12.3005 1.39312 12.2982C1.11709 12.2983 0.841285 12.2822 0.567139 12.2499C2.14889 13.2669 3.99017 13.8067 5.87067 13.8046C12.2364 13.8046 15.7164 8.53224 15.7164 3.95962C15.7164 3.81106 15.7127 3.66102 15.706 3.51246C16.3829 3.02294 16.9672 2.41677 17.4315 1.72233L17.433 1.72011Z" fill="black" fill-opacity="0.2"/>
</svg>
