<svg width="17" height="18" viewBox="0 0 17 18" fill="none" xmlns="http://www.w3.org/2000/svg">
<path fill-rule="evenodd" clip-rule="evenodd" d="M6.11481 6.31456H9.17181V7.83729C9.61217 6.96151 10.7415 6.17463 12.4379 6.17463C15.6899 6.17463 16.462 7.91796 16.462 11.1165V17.0404H13.1696V11.845C13.1696 10.0234 12.7293 8.99622 11.6082 8.99622C10.0534 8.99622 9.40722 10.1033 9.40722 11.8441V17.0404H6.11481V6.31456ZM0.469167 16.9005H3.76157V6.17463H0.469167V16.9005ZM4.23321 2.67728C4.23333 2.95324 4.1786 3.22648 4.0722 3.48111C3.9658 3.73573 3.80985 3.96667 3.61341 4.1605C3.21536 4.5561 2.67657 4.77754 2.11537 4.77618C1.55516 4.77581 1.01761 4.55493 0.618972 4.16133C0.423248 3.96684 0.267825 3.73564 0.161611 3.48098C0.0553959 3.22632 0.000476684 2.9532 0 2.67728C0 2.12004 0.222237 1.58667 0.619795 1.19323C1.01808 0.799091 1.55586 0.578123 2.11619 0.578369C2.67755 0.578369 3.21585 0.799783 3.61341 1.19323C4.01015 1.58667 4.23321 2.12004 4.23321 2.67728Z" fill="#626F8A"/>
<path fill-rule="evenodd" clip-rule="evenodd" d="M6.11481 6.31456H9.17181V7.83729C9.61217 6.96151 10.7415 6.17463 12.4379 6.17463C15.6899 6.17463 16.462 7.91796 16.462 11.1165V17.0404H13.1696V11.845C13.1696 10.0234 12.7293 8.99622 11.6082 8.99622C10.0534 8.99622 9.40722 10.1033 9.40722 11.8441V17.0404H6.11481V6.31456ZM0.469167 16.9005H3.76157V6.17463H0.469167V16.9005ZM4.23321 2.67728C4.23333 2.95324 4.1786 3.22648 4.0722 3.48111C3.9658 3.73573 3.80985 3.96667 3.61341 4.1605C3.21536 4.5561 2.67657 4.77754 2.11537 4.77618C1.55516 4.77581 1.01761 4.55493 0.618972 4.16133C0.423248 3.96684 0.267825 3.73564 0.161611 3.48098C0.0553959 3.22632 0.000476684 2.9532 0 2.67728C0 2.12004 0.222237 1.58667 0.619795 1.19323C1.01808 0.799091 1.55586 0.578123 2.11619 0.578369C2.67755 0.578369 3.21585 0.799783 3.61341 1.19323C4.01015 1.58667 4.23321 2.12004 4.23321 2.67728Z" fill="black" fill-opacity="0.2"/>
</svg>
